<svg width="52" height="35" viewBox="0 0 52 35" fill="none" xmlns="http://www.w3.org/2000/svg">
<path d="M46.2872 0H5.14302C2.30693 0 0 2.30693 0 5.14302V29.1438C0 31.9799 2.30693 34.2868 5.14302 34.2868H46.2872C49.1233 34.2868 51.4302 31.9799 51.4302 29.1438V5.14302C51.4302 2.30693 49.1233 0 46.2872 0ZM49.1444 5.14302V14.2862H24.0682C25.9528 13.0164 27.6243 11.3798 28.2809 9.7946C28.8723 8.36712 28.6535 7.03737 27.666 6.04934C27.0511 5.43446 26.2814 5.1093 25.4408 5.1093C23.3882 5.1093 21.087 7.19737 19.4286 9.64373V2.28579H46.2866C47.8627 2.28579 49.1444 3.56754 49.1444 5.14302ZM19.7132 13.9993C20.6401 11.2729 23.6208 7.39509 25.4408 7.39509C25.6745 7.39509 25.8625 7.47852 26.0494 7.66539C26.2837 7.90025 26.4608 8.21455 26.1688 8.91971C25.3705 10.8478 22.0721 13.1941 19.7132 13.9993ZM5.14302 2.28579H17.1434V9.92832C15.3513 7.36823 12.801 5.1093 10.5935 5.1093C9.7306 5.1093 8.95 5.43389 8.33512 6.04934C7.38481 6.99965 7.17109 8.27112 7.73282 9.62831C8.40598 11.2529 10.2363 12.9673 12.2884 14.2862H2.28579V5.14302C2.28579 3.56754 3.56754 2.28579 5.14302 2.28579ZM16.8217 14.0056C14.2856 13.1833 10.6575 10.7135 9.84546 8.75399C9.57973 8.1134 9.76145 7.85682 9.95175 7.66596C10.1386 7.47909 10.3369 7.39566 10.5941 7.39566C12.5284 7.39509 15.7908 11.3118 16.8217 14.0056ZM2.28579 29.1438V16.572H14.9816L9.58031 20.8167L10.9924 22.6139L17.1434 17.7806V32.001H5.14302C3.56754 32.001 2.28579 30.7193 2.28579 29.1438ZM46.2872 32.001H19.4292V17.7806L25.5808 22.6133L26.9929 20.8161L21.591 16.572H49.1444V29.1438C49.1444 30.7193 47.8627 32.001 46.2872 32.001ZM28.5723 26.2865H45.7157V28.5723H28.5723V26.2865ZM38.8584 25.1437H28.5723V22.8579H38.8584V25.1437Z" fill="white"/>
</svg>
