<svg width="17" height="17" viewBox="0 0 17 17" fill="none" xmlns="http://www.w3.org/2000/svg">
<path d="M8.5 0C3.825 0 0 3.825 0 8.5C0 13.175 3.825 17 8.5 17C13.175 17 17 13.175 17 8.5C17 3.825 13.175 0 8.5 0ZM8.5 15.4062C4.675 15.4062 1.59375 12.325 1.59375 8.5C1.59375 4.675 4.675 1.59375 8.5 1.59375C12.325 1.59375 15.4062 4.675 15.4062 8.5C15.4062 12.325 12.325 15.4062 8.5 15.4062Z" fill="white"/>
<path d="M9.5625 7.4375H7.4375V12.75H9.5625V7.4375Z" fill="white"/>
<path d="M8.5 6.375C9.0868 6.375 9.5625 5.8993 9.5625 5.3125C9.5625 4.7257 9.0868 4.25 8.5 4.25C7.9132 4.25 7.4375 4.7257 7.4375 5.3125C7.4375 5.8993 7.9132 6.375 8.5 6.375Z" fill="white"/>
</svg>
