<svg viewBox="0 0 45 42" fill="none" xmlns="http://www.w3.org/2000/svg">
<path d="M43.7157 26.674H0.740944C0.331943 26.674 0 26.342 0 25.933V2.96452C0 1.32999 1.32999 0 2.96452 0H41.4921C43.1266 0 44.4566 1.32999 44.4566 2.96452V25.933C44.4566 26.342 44.1247 26.674 43.7157 26.674ZM1.48189 25.1921H42.9747V2.96452C42.9747 2.14651 42.3094 1.48189 41.4921 1.48189H2.96452C2.14725 1.48189 1.48189 2.14651 1.48189 2.96452V25.1921Z" fill="black"/>
<path d="M41.4921 32.6015H2.96452C1.32999 32.6015 0 31.2715 0 29.637V25.933C0 25.524 0.331943 25.1921 0.740944 25.1921H43.7157C44.1247 25.1921 44.4566 25.524 44.4566 25.933V29.637C44.4566 31.2715 43.1266 32.6015 41.4921 32.6015ZM1.48189 26.674V29.637C1.48189 30.455 2.14725 31.1196 2.96452 31.1196H41.4921C42.3094 31.1196 42.9747 30.455 42.9747 29.637V26.674H1.48189Z" fill="black"/>
<path d="M24.4511 29.6378H20.0055C19.5965 29.6378 19.2645 29.3058 19.2645 28.8968C19.2645 28.4878 19.5965 28.1559 20.0055 28.1559H24.4511C24.8601 28.1559 25.1921 28.4878 25.1921 28.8968C25.1921 29.3058 24.8601 29.6378 24.4511 29.6378Z" fill="black"/>
<path d="M40.7519 26.674H3.70472C3.29572 26.674 2.96378 26.342 2.96378 25.933V3.70472C2.96378 3.29572 3.29572 2.96378 3.70472 2.96378H40.7519C41.1609 2.96378 41.4928 3.29572 41.4928 3.70472V25.933C41.4928 26.342 41.1609 26.674 40.7519 26.674ZM4.44566 25.1921H40.011V4.44566H4.44566V25.1921Z" fill="black"/>
<path d="M31.8606 41.4928H12.596C11.3705 41.4928 10.3732 40.4955 10.3732 39.27C10.3732 38.0445 11.3705 37.0472 12.596 37.0472H31.8606C33.0861 37.0472 34.0834 38.0445 34.0834 39.27C34.0834 40.4955 33.0861 41.4928 31.8606 41.4928ZM12.596 38.5291C12.187 38.5291 11.8551 38.8618 11.8551 39.27C11.8551 39.6783 12.187 40.011 12.596 40.011H31.8606C32.2696 40.011 32.6015 39.6783 32.6015 39.27C32.6015 38.8618 32.2696 38.5291 31.8606 38.5291H12.596Z" fill="black"/>
<path d="M30.3787 38.5291H14.0779C13.6689 38.5291 13.337 38.1971 13.337 37.7881C13.337 37.3791 13.6689 37.0472 14.0779 37.0472C16.5364 37.0472 17.7826 35.3023 17.7826 31.8606C17.7826 31.4516 18.1146 31.1196 18.5236 31.1196H25.933C26.342 31.1196 26.674 31.4516 26.674 31.8606C26.674 35.3023 27.9202 37.0472 30.3787 37.0472C30.7877 37.0472 31.1196 37.3791 31.1196 37.7881C31.1196 38.1971 30.7877 38.5291 30.3787 38.5291ZM17.6871 37.0472H26.7703C25.8574 36.0365 25.3203 34.5317 25.2128 32.6015H19.2445C19.1363 34.5317 18.5992 36.0365 17.6871 37.0472Z" fill="black"/>
<path d="M26.674 22.2283H17.7826C17.3736 22.2283 17.0417 21.8963 17.0417 21.4873C17.0417 21.0783 17.3736 20.7464 17.7826 20.7464H26.674C27.083 20.7464 27.4149 21.0783 27.4149 21.4873C27.4149 21.8963 27.083 22.2283 26.674 22.2283Z" fill="black"/>
<path d="M17.7827 23.7102H14.8189C14.4099 23.7102 14.0779 23.3782 14.0779 22.9692V20.0055C14.0779 19.5965 14.4099 19.2645 14.8189 19.2645H17.7827C18.1917 19.2645 18.5236 19.5965 18.5236 20.0055V22.9692C18.5236 23.3782 18.1917 23.7102 17.7827 23.7102ZM15.5598 22.2283H17.0417V20.7464H15.5598V22.2283Z" fill="black"/>
<path d="M29.6378 23.7102H26.674C26.265 23.7102 25.933 23.3782 25.933 22.9692V20.0055C25.933 19.5965 26.265 19.2645 26.674 19.2645H29.6378C30.0468 19.2645 30.3787 19.5965 30.3787 20.0055V22.9692C30.3787 23.3782 30.0468 23.7102 29.6378 23.7102ZM27.4149 22.2283H28.8968V20.7464H27.4149V22.2283Z" fill="black"/>
<path d="M14.8189 20.7464C13.5934 20.7464 12.5961 19.7491 12.5961 18.5236C12.5961 17.2981 13.5934 16.3008 14.8189 16.3008C15.2279 16.3008 15.5598 16.6327 15.5598 17.0417C15.5598 17.4507 15.2279 17.7827 14.8189 17.7827C14.4099 17.7827 14.078 18.1154 14.078 18.5236C14.078 18.9319 14.4099 19.2646 14.8189 19.2646C15.2279 19.2646 15.5598 19.5965 15.5598 20.0055C15.5598 20.4145 15.2279 20.7464 14.8189 20.7464Z" fill="black"/>
<path d="M29.6377 17.7826H14.8189C14.4788 17.7826 14.1824 17.5515 14.1002 17.2217L11.8773 8.33042C11.8218 8.10887 11.8714 7.87474 12.0122 7.69469C12.1522 7.51464 12.3678 7.40942 12.596 7.40942H31.8606C32.0888 7.40942 32.3044 7.51464 32.4444 7.69469C32.5845 7.87474 32.6349 8.10887 32.5793 8.33042L30.3565 17.2217C30.2742 17.5515 29.9778 17.7826 29.6377 17.7826ZM15.3975 16.3007H29.0591L30.9114 8.89131H13.5452L15.3975 16.3007Z" fill="black"/>
<path d="M12.5968 8.89133C12.3248 8.89133 12.0633 8.74166 11.9336 8.48159L11.1927 6.9997C11.0097 6.63368 11.1579 6.18837 11.5239 6.00535C11.8892 5.8216 12.3345 5.97053 12.5182 6.33656L13.2592 7.81844C13.4422 8.18447 13.294 8.62978 12.928 8.81279C12.8213 8.86614 12.7079 8.89133 12.5968 8.89133Z" fill="black"/>
<path d="M11.8551 7.40944H9.63227C9.22327 7.40944 8.89133 7.0775 8.89133 6.66849C8.89133 6.25949 9.22327 5.92755 9.63227 5.92755H11.8551C12.2641 5.92755 12.596 6.25949 12.596 6.66849C12.596 7.0775 12.2641 7.40944 11.8551 7.40944Z" fill="black"/>
<path d="M30.3787 14.8189H14.0779C13.6689 14.8189 13.337 14.4869 13.337 14.0779C13.337 13.6689 13.6689 13.337 14.0779 13.337H30.3787C30.7877 13.337 31.1196 13.6689 31.1196 14.0779C31.1196 14.4869 30.7877 14.8189 30.3787 14.8189Z" fill="black"/>
<path d="M31.1197 11.8551H13.337C12.928 11.8551 12.5961 11.5231 12.5961 11.1141C12.5961 10.7051 12.928 10.3732 13.337 10.3732H31.1197C31.5287 10.3732 31.8606 10.7051 31.8606 11.1141C31.8606 11.5231 31.5287 11.8551 31.1197 11.8551Z" fill="black"/>
<path d="M22.2283 17.7826C21.8193 17.7826 21.4874 17.4507 21.4874 17.0417V8.15037C21.4874 7.74137 21.8193 7.40942 22.2283 7.40942C22.6373 7.40942 22.9693 7.74137 22.9693 8.15037V17.0417C22.9693 17.4507 22.6373 17.7826 22.2283 17.7826Z" fill="black"/>
<path d="M18.5229 17.7826C18.1672 17.7826 17.853 17.5255 17.793 17.1639L16.3111 8.27261C16.2437 7.8688 16.5164 7.48721 16.9202 7.41979C17.3225 7.35384 17.7056 7.62503 17.773 8.02884L19.2549 16.9202C19.3223 17.324 19.0497 17.7056 18.6459 17.773C18.6044 17.7797 18.5629 17.7826 18.5229 17.7826Z" fill="black"/>
<path d="M25.9338 17.7826C25.893 17.7826 25.8523 17.7796 25.8108 17.7722C25.4069 17.7048 25.1343 17.3232 25.2017 16.9194L26.6836 8.02809C26.751 7.62502 27.1341 7.35309 27.5364 7.41903C27.9402 7.48646 28.2129 7.86805 28.1455 8.27186L26.6636 17.1632C26.6036 17.5255 26.2894 17.7826 25.9338 17.7826Z" fill="black"/>
</svg>