<svg width="18" height="18" viewBox="0 0 18 18" fill="none" xmlns="http://www.w3.org/2000/svg">
<path d="M12.0427 0H4.94906C4.10588 0 3.42767 0.678208 3.42767 1.52138V16.4786C3.42767 17.3218 4.10588 18 4.94906 18H12.0427C12.8859 18 13.5641 17.3218 13.5641 16.4786V1.52138C13.5458 0.678208 12.8676 0 12.0427 0ZM4.94906 0.586558H12.0427C12.556 0.586558 12.9776 1.00815 12.9776 1.52138V2.36456H3.9959V1.52138C3.9959 1.00815 4.41749 0.586558 4.94906 0.586558ZM12.9776 2.95112V14.8656H3.9959V2.95112H12.9776ZM12.0427 17.4318H4.94906C4.43582 17.4318 4.01423 17.0102 4.01423 16.4969V15.4521H12.9959V16.4969C12.9776 16.9919 12.556 17.4318 12.0427 17.4318Z" fill="white"/>
<path d="M8.48678 17.0102C8.82086 17.0102 9.09167 16.7394 9.09167 16.4053C9.09167 16.0712 8.82086 15.8004 8.48678 15.8004C8.15271 15.8004 7.8819 16.0712 7.8819 16.4053C7.8819 16.7394 8.15271 17.0102 8.48678 17.0102Z" fill="white"/>
<path d="M8.46841 17.0102C8.80248 17.0102 9.0733 16.7394 9.0733 16.4053C9.0733 16.0712 8.80248 15.8004 8.46841 15.8004C8.13434 15.8004 7.86353 16.0712 7.86353 16.4053C7.86353 16.7394 8.13434 17.0102 8.46841 17.0102Z" fill="white"/>
<path d="M7.36866 1.30139C7.24035 1.30139 7.13037 1.41137 7.13037 1.53968C7.13037 1.66799 7.24035 1.77797 7.36866 1.77797H9.54992C9.67823 1.77797 9.78821 1.66799 9.78821 1.53968C9.78821 1.39304 9.67823 1.30139 9.54992 1.30139H7.36866Z" fill="white"/>
<path d="M17.2302 5.15069H16.9552V4.87574C16.9552 4.78409 16.8819 4.69244 16.7719 4.69244C16.6803 4.69244 16.5886 4.76576 16.5886 4.87574V5.15069H16.3137C16.222 5.15069 16.1304 5.22401 16.1304 5.33399C16.1304 5.42564 16.2037 5.51729 16.3137 5.51729H16.5886V5.79224C16.5886 5.88389 16.6619 5.97554 16.7719 5.97554C16.8636 5.97554 16.9552 5.90222 16.9552 5.79224V5.51729H17.2302C17.3218 5.51729 17.4135 5.44397 17.4135 5.33399C17.3951 5.22401 17.3218 5.15069 17.2302 5.15069Z" fill="white"/>
<path d="M2.30955 12.2444H2.03461V11.9694C2.03461 11.8778 1.96129 11.7861 1.85131 11.7861C1.75966 11.7861 1.66801 11.8595 1.66801 11.9694V12.2444H1.41139C1.31974 12.2444 1.22809 12.3177 1.22809 12.4277C1.22809 12.5377 1.30141 12.611 1.41139 12.611H1.68634V12.8859C1.68634 12.9776 1.75966 13.0692 1.86964 13.0692C1.96129 13.0692 2.05294 12.9959 2.05294 12.8859V12.611H2.32788C2.41953 12.611 2.51118 12.5377 2.51118 12.4277C2.51118 12.3177 2.41953 12.2444 2.30955 12.2444Z" fill="white"/>
<path d="M1.94299 3.2994H1.48474V2.84115C1.48474 2.71284 1.37476 2.58453 1.22812 2.58453C1.09981 2.58453 0.971501 2.69451 0.971501 2.84115V3.2994H0.531583C0.403273 3.2994 0.274963 3.40938 0.274963 3.55602C0.274963 3.68433 0.384943 3.81264 0.531583 3.81264H0.989831V4.27089C0.989831 4.3992 1.09981 4.52751 1.24645 4.52751C1.37476 4.52751 1.50307 4.41753 1.50307 4.27089V3.81264H1.96132C2.08963 3.81264 2.21794 3.70266 2.21794 3.55602C2.19961 3.40938 2.08963 3.2994 1.94299 3.2994Z" fill="white"/>
<path d="M0.329939 8.68838C0.512159 8.68838 0.659878 8.54066 0.659878 8.35844C0.659878 8.17622 0.512159 8.0285 0.329939 8.0285C0.147719 8.0285 0 8.17622 0 8.35844C0 8.54066 0.147719 8.68838 0.329939 8.68838Z" fill="white"/>
<path d="M15.5621 15.4888C15.7443 15.4888 15.8921 15.3411 15.8921 15.1589C15.8921 14.9766 15.7443 14.8289 15.5621 14.8289C15.3799 14.8289 15.2322 14.9766 15.2322 15.1589C15.2322 15.3411 15.3799 15.4888 15.5621 15.4888Z" fill="white"/>
<path d="M15.2872 3.17108C15.5099 3.17108 15.6904 2.99054 15.6904 2.76782C15.6904 2.54511 15.5099 2.36456 15.2872 2.36456C15.0645 2.36456 14.8839 2.54511 14.8839 2.76782C14.8839 2.99054 15.0645 3.17108 15.2872 3.17108Z" fill="white"/>
<path d="M11.6945 7.33198C11.6762 7.222 11.4195 6.21386 10.4481 5.84726C9.8615 5.6273 8.85336 5.59064 8.4501 5.59064C8.04684 5.59064 7.03869 5.6273 6.45214 5.84726C5.44399 6.23218 5.22403 7.29532 5.2057 7.33198C5.07739 7.82689 5.0224 8.39512 5.0224 9.00001C5.0224 9.60489 5.07739 10.1548 5.2057 10.6497C5.22403 10.6864 5.44399 11.7678 6.45214 12.1528C7.03869 12.3727 8.04684 12.4094 8.4501 12.4094C8.85336 12.4094 9.8615 12.3727 10.4481 12.1528C11.4562 11.7678 11.6762 10.7047 11.6945 10.668C11.8228 10.1731 11.8778 9.60489 11.8778 9.00001C11.8778 8.39512 11.8228 7.84522 11.6945 7.33198ZM6.52546 10.9246C6.52546 10.9246 6.85539 9.53157 7.38696 10.0631C7.91853 10.5947 6.52546 10.9246 6.52546 10.9246ZM10.3931 7.14868C10.3747 8.70673 9.56822 9.45825 8.90835 9.80652L9.05499 10.4114L8.74338 10.723L8.01018 9.98982C8.01018 10.1181 7.95519 10.2464 7.84521 10.3564L7.07535 9.58656C7.167 9.49491 7.31364 9.43992 7.44195 9.42159L6.70875 8.6884L7.02036 8.37679L7.62525 8.52343C7.97352 7.88188 8.72505 7.05703 10.2831 7.0387H10.3747L10.3931 7.14868Z" fill="white"/>
<path d="M9.4399 8.37675C9.64237 8.37675 9.8065 8.21262 9.8065 8.01015C9.8065 7.80769 9.64237 7.64355 9.4399 7.64355C9.23744 7.64355 9.0733 7.80769 9.0733 8.01015C9.0733 8.21262 9.23744 8.37675 9.4399 8.37675Z" fill="white"/>
</svg>
