<?xml version="1.0" encoding="UTF-8" standalone="no"?>
<!DOCTYPE svg PUBLIC "-//W3C//DTD SVG 1.1//EN" "http://www.w3.org/Graphics/SVG/1.1/DTD/svg11.dtd">
<svg version="1.1" xmlns="http://www.w3.org/2000/svg" xmlns:xlink="http://www.w3.org/1999/xlink" preserveAspectRatio="xMidYMid meet" viewBox="0 0 640 640" width="640" height="640"><defs><path d="M147.96 289.66C138.27 287.06 130.23 280.88 125.35 272.28C117.69 258.83 123.85 246.65 127.51 239.41C127.64 239.16 128.62 237.2 128.75 236.96C147.11 198.58 171.91 160.78 206.81 117.98C244.93 71.22 291.77 44 349.98 34.81C390.44 28.43 430.59 31.46 469.44 34.39C470.95 34.5 483.04 35.4 484.56 35.51C516.43 37.74 536.65 34.95 551.68 13.62C553.87 10.51 556.52 8.46 558.64 6.81C558.82 6.67 560.24 5.54 560.42 5.39C565.25 1.11 572.61 1.54 576.93 6.39C581.2 11.22 580.76 18.61 575.93 22.9C574.98 23.74 573.97 24.54 572.95 25.33C572.2 25.91 571.07 26.78 570.75 27.15C547.3 60.48 513.08 60.96 482.9 58.84C481.38 58.73 469.2 57.83 467.68 57.72C430.17 54.9 391.34 51.97 353.64 57.92C301.36 66.18 259.26 90.67 224.93 132.79C191.25 174.1 167.39 210.41 149.83 247.09C149.69 247.38 148.53 249.66 148.39 249.94C144.96 256.71 144.49 258.63 145.67 260.73C147.45 263.86 150.41 266.11 154.03 267.07C158.16 268.2 162.73 267.53 166.58 265.28C183.05 255.65 194.55 240.48 206.74 224.41C206.91 224.19 208.27 222.39 208.44 222.17C218.42 209.07 229.8 197.6 240.8 186.5C246.99 180.27 253.21 174.02 259.12 167.5C282.05 142.2 314 134.39 342.23 127.51C347.95 126.1 353.64 123.42 359.66 120.58C370.1 115.67 381.87 110.11 396.24 110.61C402.69 110.84 407.73 116.27 407.49 122.72C407.26 129.17 402.57 134.36 395.4 133.97C387.21 133.48 378.83 137.4 369.65 141.74C362.85 144.93 355.82 148.24 347.81 150.22C322.84 156.31 294.58 163.22 276.47 183.21C270.29 190.01 263.87 196.49 257.43 202.98C246.48 214.01 236.13 224.46 227.09 236.34C226.92 236.56 225.57 238.33 225.4 238.55C212.37 255.73 198.89 273.48 178.42 285.47C172.17 289.08 165.09 290.97 158.03 290.97C154.64 290.97 151.25 290.53 147.96 289.66Z" id="d13DWSVIOl"></path><path d="M92.32 630.68C91.12 623.32 92.57 617.45 96.6 613.22C102.7 606.85 111.29 607.83 115.9 608.34C145.13 611.27 173.82 610.77 201.52 610.31C212.95 610.1 224.7 609.99 235.78 609.95C235.86 609.95 235.95 609.95 236.03 609.95C281.25 609.95 317.91 596.71 344.99 570.65C383.8 533.3 424.2 492.86 454.32 444.85C456.5 441.4 458.9 438.08 461.33 434.78C466.16 428.18 470.73 421.98 472.32 415.09C472.77 413.14 473.33 411.13 473.94 409.12C476.19 401.42 476.34 399.27 474.85 397.6C472.46 394.94 468.63 394.94 460.37 395.62C458.34 395.79 456.31 395.95 454.32 396.03C452.66 396.09 450.26 398.21 447.74 400.44C447.54 400.61 445.97 402 445.78 402.17C434.33 411.97 423.1 422.01 411.86 432.07C402.05 440.84 392.25 449.59 382.3 458.19C381.56 458.83 375.63 463.98 374.88 464.63C342.43 492.87 308.89 522.07 263.05 532.9C256.72 534.38 250.45 530.5 248.99 524.19C247.49 517.92 251.39 511.61 257.67 510.13C297.88 500.63 327.84 474.57 359.55 446.98C360.29 446.33 366.27 441.15 367.01 440.5C376.85 431.99 386.56 423.29 396.27 414.62C407.63 404.49 419 394.31 430.56 384.42C430.72 384.27 432.02 383.12 432.18 382.98C436.63 379.02 443.34 373.02 453.38 372.63C455.03 372.57 456.75 372.43 458.45 372.3C468.35 371.51 481.83 370.42 492.23 381.98C502.73 393.71 498.9 406.91 496.37 415.64C495.9 417.24 495.44 418.8 495.08 420.37C492.4 431.91 485.9 440.78 480.16 448.6C478.07 451.46 475.97 454.29 474.1 457.27C442.6 507.52 401.04 549.16 361.18 587.49C329.6 617.9 287.47 633.31 236.02 633.31C235.44 633.33 234.88 633.31 234.3 633.31C223.5 633.31 212.71 633.5 201.91 633.66C173.5 634.14 144.15 634.64 114.98 631.75C114.96 631.75 114.81 631.74 114.79 631.74C113.44 635.79 110.04 639.11 105.68 639.81C104.97 639.95 104.29 640 103.6 640C98.05 640 93.24 636.37 92.32 630.68Z" id="bqhS1a6S4"></path><path d="M61 547.93C54.69 546.6 50.62 540.41 51.95 534.08C53.26 527.77 59.41 523.69 65.79 525.03C88.95 529.88 105.74 526.73 121.89 514.54C144.92 497.2 163.63 479.26 179.09 459.72C194.29 440.48 214.72 430.65 235.99 430.94C261.22 431.33 286.32 426.5 312.35 415.92C328.06 409.54 338.36 414.11 343.07 417.41C351.63 423.4 356.09 434.26 355.62 448.06C355.38 454.48 350.69 459.75 343.54 459.33C337.09 459.11 332.03 453.7 332.24 447.25C332.49 440.42 330.74 437.33 329.7 436.59C328.68 435.88 325.8 435.7 321.15 437.58C292.15 449.37 264.2 454.99 235.57 454.32C220.87 453.89 208.08 460.73 197.44 474.2C180.73 495.35 160.62 514.66 135.96 533.2C120.52 544.86 103.88 550.54 84.77 550.54C77.26 550.54 69.37 549.66 61 547.93Z" id="e1XyONUoD"></path><path d="M288.11 217.23C280.61 211.69 276.23 202.59 275.13 190.17C274.55 183.73 279.3 178.05 285.72 177.48C292.32 176.9 297.84 181.64 298.41 188.08C298.88 193.31 300.19 197.09 302 198.43C303.73 199.72 307.56 199.86 312.5 198.83C313.36 198.65 320.16 197.19 321.01 197.01C341.48 192.57 362.66 187.98 384.64 190.21C409.15 192.64 429.36 183.59 452.48 159.83C476.78 134.85 515.76 102.58 573.33 110.72C579.72 111.62 584.18 117.54 583.27 123.94C582.37 130.33 576.38 134.78 570.07 133.88C533.75 128.75 502.65 141.78 469.25 176.15C450.22 195.7 423.08 217.6 382.29 213.48C363.96 211.63 345.53 215.62 325.99 219.86C325.12 220.05 318.19 221.53 317.32 221.71C313.56 222.49 310.03 222.88 306.71 222.88C299.43 222.88 293.21 220.98 288.11 217.23Z" id="anv714A1J"></path><path d="M319.57 342.03C315.73 336.83 316.84 329.52 322.03 325.68C322.26 325.52 324.12 324.2 324.35 324.03C325.57 323.17 326.83 322.35 327.9 321.33C331.19 318.2 333 316.13 333.98 314.82C332.6 313.87 330.16 312.42 325.86 310.42C321.83 308.54 309.54 302.8 310.07 287.21C310.37 279.4 313.67 265.97 332.92 263.71C339.24 262.99 345.13 267.54 345.89 273.96C346.64 280.39 342.06 286.18 335.64 286.95C333.5 287.2 332.83 287.56 332.81 287.57C333.19 287.87 333.73 288.3 335.74 289.25C346.34 294.2 356.4 300.24 358.14 310.89C359.89 321.5 352.41 330.33 344.05 338.31C342.14 340.13 339.97 341.69 337.77 343.23C337.59 343.36 336.12 344.41 335.93 344.54C333.81 346.05 331.38 346.79 328.98 346.79C325.39 346.79 321.84 345.15 319.57 342.03Z" id="d8WJrnoQq"></path><path d="M296.04 366.13C268.5 347.99 262.19 307.87 267.99 278.27C274.03 247.4 296.89 236.02 317.04 225.99C317.7 225.66 322.96 223.01 323.62 222.68C325.61 221.65 327.76 221.25 329.85 221.42C329.85 221.42 329.87 221.42 329.87 221.42C350.65 219.89 366.64 222.96 378.91 230.76C402.46 245.75 416.14 269.3 416.46 295.38C416.77 321.61 402.94 346.68 379.47 362.41C366.81 370.87 349.15 375.25 332.41 375.25C318.57 375.25 305.33 372.27 296.04 366.13ZM327.47 246.94C307.17 257.02 294.58 264.16 290.93 282.77C286.55 305.11 291.35 335.07 308.89 346.62C320.47 354.25 349.85 354.08 366.44 343C383.57 331.51 393.28 314.26 393.06 295.68C392.84 277.64 383.1 261.18 366.34 250.5C358.64 245.58 346.92 243.65 331.83 244.72C330.96 245.16 327.9 246.71 327.47 246.94Z" id="c8ohQF4ya"></path></defs><g><g><g><use xlink:href="#d13DWSVIOl" opacity="1" fill="#000000" fill-opacity="1"></use><g><use xlink:href="#d13DWSVIOl" opacity="1" fill-opacity="0" stroke="#000000" stroke-width="1" stroke-opacity="0"></use></g></g><g><use xlink:href="#bqhS1a6S4" opacity="1" fill="#000000" fill-opacity="1"></use><g><use xlink:href="#bqhS1a6S4" opacity="1" fill-opacity="0" stroke="#000000" stroke-width="1" stroke-opacity="0"></use></g></g><g><use xlink:href="#e1XyONUoD" opacity="1" fill="#000000" fill-opacity="1"></use><g><use xlink:href="#e1XyONUoD" opacity="1" fill-opacity="0" stroke="#000000" stroke-width="1" stroke-opacity="0"></use></g></g><g><use xlink:href="#anv714A1J" opacity="1" fill="#000000" fill-opacity="1"></use><g><use xlink:href="#anv714A1J" opacity="1" fill-opacity="0" stroke="#000000" stroke-width="1" stroke-opacity="0"></use></g></g><g><use xlink:href="#d8WJrnoQq" opacity="1" fill="#000000" fill-opacity="1"></use><g><use xlink:href="#d8WJrnoQq" opacity="1" fill-opacity="0" stroke="#000000" stroke-width="1" stroke-opacity="0"></use></g></g><g><use xlink:href="#c8ohQF4ya" opacity="1" fill="#000000" fill-opacity="1"></use><g><use xlink:href="#c8ohQF4ya" opacity="1" fill-opacity="0" stroke="#000000" stroke-width="1" stroke-opacity="0"></use></g></g></g></g></svg>