<svg width="13" height="13" viewBox="0 0 13 13" fill="none" xmlns="http://www.w3.org/2000/svg">
<path d="M11.7994 11.4544C12.3539 10.8858 12.3539 10.1276 11.7994 9.57349L10.2818 8.05707C10.0192 7.78004 9.69817 7.63423 9.34796 7.63423C9.01235 7.63423 8.69133 7.78004 8.41408 8.05707L7.53857 8.93193C7.46561 8.88818 7.39265 8.85902 7.31969 8.81528C7.21754 8.77154 7.12999 8.71321 7.04244 8.66947C6.22529 8.15914 5.48111 7.47384 4.7807 6.61356C4.43049 6.17614 4.19702 5.81161 4.03651 5.43251C4.25539 5.22838 4.47427 5.00966 4.67855 4.80553C4.75151 4.73263 4.83906 4.64514 4.91202 4.57224C5.18927 4.2952 5.34978 3.95984 5.34978 3.62448C5.34978 3.28912 5.20386 2.96834 4.91202 2.67672L4.16784 1.91851C4.08028 1.83103 3.99273 1.74354 3.91977 1.65606C3.75926 1.48108 3.58416 1.30611 3.40906 1.14572C3.1464 0.883267 2.82538 0.737458 2.48977 0.737458C2.15415 0.737458 1.83313 0.883267 1.55588 1.14572L0.60741 2.09348C0.257204 2.44342 0.052917 2.86627 0.00914128 3.36202C-0.0492264 4.16397 0.184244 4.9076 0.359347 5.40335C0.797104 6.59898 1.46833 7.72171 2.46058 8.91735C3.67171 10.3609 5.11631 11.4836 6.76519 12.2855C7.39265 12.5917 8.23898 12.9417 9.18745 13C9.24582 13 9.30419 13 9.36255 13C9.99001 13 10.5299 12.7667 10.9385 12.3147L10.9531 12.3001C11.099 12.1251 11.2595 11.9648 11.4346 11.8044C11.5659 11.7023 11.6827 11.5857 11.7994 11.4544ZM10.9385 11.294C10.7634 11.469 10.5737 11.644 10.4132 11.8481C10.1359 12.1543 9.80031 12.2855 9.37715 12.2855C9.33337 12.2855 9.2896 12.2855 9.24582 12.2855C8.42867 12.2126 7.66989 11.9064 7.08622 11.6294C5.52488 10.8712 4.16784 9.80678 3.02967 8.45076C2.09578 7.32803 1.46833 6.2782 1.04517 5.15547C0.782513 4.47017 0.694961 3.93068 0.738737 3.43493C0.767921 3.11415 0.899248 2.85169 1.11813 2.61839L2.05201 1.68522C2.18334 1.55399 2.32925 1.48108 2.47517 1.48108C2.65028 1.48108 2.7962 1.58315 2.89834 1.68522C3.07344 1.84561 3.21936 2.006 3.39446 2.18097C3.48202 2.26845 3.56957 2.35594 3.65712 2.44342L4.40131 3.18705C4.54722 3.33286 4.62018 3.47867 4.62018 3.62448C4.62018 3.77029 4.54722 3.9161 4.40131 4.0619C4.32835 4.13481 4.24079 4.22229 4.16784 4.2952C3.93436 4.52849 3.71549 4.74721 3.48202 4.96592L3.46742 4.9805C3.23395 5.2138 3.27773 5.44709 3.3215 5.5929C3.3215 5.60748 3.3215 5.60748 3.3361 5.62206C3.52579 6.08865 3.80304 6.54066 4.2262 7.06557C4.98498 7.99875 5.78754 8.72779 6.66305 9.28187C6.77979 9.35477 6.89652 9.4131 6.99867 9.47142C7.10081 9.51516 7.18836 9.57349 7.27591 9.61723C7.2905 9.61723 7.2905 9.63181 7.3051 9.63181C7.39265 9.67555 7.4802 9.70472 7.56775 9.70472C7.78663 9.70472 7.93255 9.55891 7.97632 9.51516L8.9248 8.5674C9.01235 8.47992 9.17286 8.36327 9.34796 8.36327C9.52307 8.36327 9.65439 8.47992 9.75654 8.5674L11.2741 10.0838C11.6243 10.4338 11.4638 10.7545 11.2595 10.9587C11.172 11.0753 11.0552 11.1774 10.9385 11.294ZM6.73601 2.64756C6.76519 2.44342 6.95489 2.3122 7.15918 2.35594C8.03469 2.50175 8.82265 2.91001 9.45011 3.55157C10.0776 4.19313 10.4861 4.9805 10.6466 5.84077C10.6758 6.04491 10.5445 6.23446 10.3548 6.26362C10.3402 6.26362 10.311 6.26362 10.2964 6.26362C10.1213 6.26362 9.96082 6.13239 9.93164 5.95742C9.8149 5.24296 9.4647 4.57224 8.93939 4.0619C8.41408 3.53699 7.75744 3.20163 7.04244 3.0704C6.82356 3.04124 6.69223 2.85169 6.73601 2.64756ZM12.2809 5.85536C12.0621 4.57224 11.4492 3.40576 10.5299 2.47259C9.59602 1.53941 8.42867 0.941591 7.14458 0.722877C6.9403 0.693715 6.80897 0.504164 6.85275 0.300031C6.89652 0.0958983 7.07162 -0.0353298 7.27591 0.00841288C8.69133 0.241707 10.0046 0.912429 11.0406 1.94767C12.0766 2.98292 12.7625 4.2952 12.9959 5.72413C13.0251 5.92826 12.8938 6.11781 12.7041 6.14697C12.6895 6.14697 12.6603 6.14697 12.6457 6.14697C12.4706 6.16155 12.3101 6.03033 12.2809 5.85536Z" fill="white"/>
</svg>
