<svg width="14" height="14" viewBox="0 0 14 14" fill="none" xmlns="http://www.w3.org/2000/svg">
<path d="M12.2286 11.6474C13.3677 10.3703 13.998 8.71934 14 7.00807C14.002 5.2968 13.3754 3.6444 12.2392 2.36471C12.2261 2.34616 12.2114 2.32884 12.1951 2.31297C11.5397 1.58496 10.7386 1.00284 9.84375 0.604373C8.9489 0.20591 7.98028 0 7.00072 0C6.02116 0 5.05253 0.20591 4.15768 0.604373C3.26282 1.00284 2.46171 1.58496 1.80631 2.31297C1.78919 2.32843 1.77387 2.34579 1.76066 2.36471C0.626423 3.64233 0 5.29149 0 6.99995C0 8.70842 0.626423 10.3576 1.76066 11.6352C1.77377 11.6537 1.78854 11.6711 1.80479 11.6869C2.46033 12.415 3.26157 12.9971 4.15655 13.3956C5.05153 13.7941 6.02028 14 6.99996 14C7.97964 14 8.94838 13.7941 9.84336 13.3956C10.7383 12.9971 11.5396 12.415 12.1951 11.6869C12.2071 11.6745 12.2183 11.6612 12.2286 11.6474V11.6474ZM0.616327 7.3043H3.34782C3.36466 8.36401 3.51809 9.41712 3.80434 10.4376C3.20994 10.5899 2.63349 10.8051 2.08479 11.0798C1.19655 10.0152 0.680853 8.68929 0.616327 7.3043V7.3043ZM2.08479 2.92015C2.63349 3.19477 3.20994 3.41005 3.80434 3.56233C3.51809 4.58278 3.36466 5.6359 3.34782 6.6956H0.608719C0.675397 5.30972 1.19381 3.98375 2.08479 2.92015V2.92015ZM13.3912 6.6956H10.6521C10.6353 5.6359 10.4818 4.58278 10.1956 3.56233C10.79 3.41005 11.3664 3.19477 11.9151 2.92015C12.8061 3.98375 13.3245 5.30972 13.3912 6.6956V6.6956ZM6.69561 3.34776C5.9925 3.33491 5.29187 3.26057 4.60172 3.12559C5.10389 1.76667 5.85562 0.826225 6.69561 0.642094V3.34776ZM4.41303 3.70233C5.16469 3.85557 5.92865 3.94063 6.69561 3.95646V6.6956H3.95651C3.97732 5.68219 4.1308 4.67587 4.41303 3.70233V3.70233ZM6.69561 7.3043V10.0434C5.92879 10.0578 5.16483 10.1413 4.41303 10.293C4.1312 9.32094 3.97772 8.31618 3.95651 7.3043H6.69561ZM6.69561 10.6521V13.3578C5.85562 13.1737 5.10389 12.2332 4.60172 10.8789C5.29173 10.7424 5.99237 10.6665 6.69561 10.6521V10.6521ZM7.3043 10.6521C8.00741 10.665 8.70804 10.7393 9.39819 10.8743C8.89602 12.2287 8.14429 13.1691 7.3043 13.3532V10.6521ZM9.58688 10.293C8.83508 10.1413 8.07112 10.0578 7.3043 10.0434V7.3043H10.0434C10.0226 8.31772 9.86911 9.32404 9.58688 10.2976V10.293ZM7.3043 6.6956V3.95646C8.07112 3.94213 8.83508 3.8586 9.58688 3.70689C9.86872 4.67896 10.0222 5.68372 10.0434 6.6956H7.3043ZM7.3043 3.34776V0.642094C8.14429 0.826225 8.89602 1.76667 9.39819 3.12102C8.70818 3.25754 8.00754 3.33341 7.3043 3.34776V3.34776ZM10.0069 2.98558C9.7484 2.20147 9.33143 1.4789 8.78189 0.862747C9.80137 1.15994 10.7307 1.70648 11.486 2.45297C11.0109 2.67564 10.5156 2.85245 10.0069 2.98102V2.98558ZM3.99303 2.98558C3.48432 2.85702 2.98904 2.6802 2.51392 2.45754C3.26868 1.70939 4.19808 1.16126 5.21802 0.862747C4.66902 1.47755 4.25208 2.19853 3.99303 2.98102V2.98558ZM3.99303 11.0235C4.25208 11.8059 4.66902 12.5269 5.21802 13.1417C4.19808 12.8432 3.26868 12.2951 2.51392 11.5469C2.98904 11.3243 3.48432 11.1475 3.99303 11.0189V11.0235ZM10.0069 11.0235C10.5156 11.152 11.0109 11.3288 11.486 11.5515C10.7302 12.2963 9.80091 12.8413 8.78189 13.1372C9.3309 12.5224 9.74783 11.8014 10.0069 11.0189V11.0235ZM10.1956 10.4376C10.4818 9.41712 10.6353 8.36401 10.6521 7.3043H13.3912C13.3245 8.69018 12.8061 10.0162 11.9151 11.0798C11.3664 10.8051 10.79 10.5899 10.1956 10.4376Z" fill="white"/>
</svg>
