<svg width="48" height="29" viewBox="0 0 48 29" fill="none" xmlns="http://www.w3.org/2000/svg">
<path d="M45.5292 11.8989L43.1595 7.56283C42.7698 6.84634 42.1942 6.24813 41.4933 5.83112C40.7924 5.41411 39.992 5.19372 39.1764 5.19315H33.6807V3.52932C33.6807 2.59329 33.3089 1.69559 32.647 1.03371C31.9851 0.371838 31.0874 0 30.1514 0H9.53007C8.59404 0 7.69634 0.371838 7.03446 1.03371C6.37259 1.69559 6.00075 2.59329 6.00075 3.52932V4.78979H1.51347C1.31294 4.78275 1.1131 4.81706 0.926405 4.89058C0.739705 4.9641 0.570137 5.07526 0.428253 5.21715C0.28637 5.35903 0.175208 5.5286 0.101686 5.7153C0.0281651 5.902 -0.00614176 6.10183 0.00090097 6.30236C0.00090097 6.70352 0.16026 7.08825 0.443921 7.37191C0.727583 7.65557 1.11231 7.81493 1.51347 7.81493H13.2611C13.6582 7.80231 14.0357 7.6389 14.3166 7.35793C14.5976 7.07696 14.761 6.69952 14.7736 6.30236C14.7736 5.9012 14.6143 5.51648 14.3306 5.23282C14.047 4.94915 13.6622 4.78979 13.2611 4.78979H9.02588V3.52932C9.02588 3.3956 9.079 3.26736 9.17356 3.17281C9.26811 3.07825 9.39635 3.02513 9.53007 3.02513H30.1514C30.2813 3.03649 30.4031 3.09326 30.4953 3.18547C30.5875 3.27767 30.6442 3.39942 30.6556 3.52932V21.9826H19.4122C19.089 20.9311 18.4372 20.0108 17.5524 19.3571C16.6676 18.7034 15.5964 18.3506 14.4963 18.3506C13.3962 18.3506 12.3251 18.7034 11.4403 19.3571C10.5555 20.0108 9.90365 20.9311 9.58049 21.9826H9.53007C9.39635 21.9826 9.26811 21.9295 9.17356 21.835C9.079 21.7404 9.02588 21.6122 9.02588 21.4784V17.1424H13.2611C13.6582 17.1298 14.0357 16.9664 14.3166 16.6854C14.5976 16.4045 14.761 16.027 14.7736 15.6299C14.7736 15.2287 14.6143 14.844 14.3306 14.5603C14.047 14.2767 13.6622 14.1173 13.2611 14.1173H1.51347C1.31294 14.1102 1.1131 14.1446 0.926405 14.2181C0.739705 14.2916 0.570137 14.4028 0.428253 14.5446C0.28637 14.6865 0.175208 14.8561 0.101686 15.0428C0.0281651 15.2295 -0.00614176 15.4293 0.00090097 15.6299C0.00090097 16.031 0.16026 16.4157 0.443921 16.6994C0.727583 16.9831 1.11231 17.1424 1.51347 17.1424H6.00075V21.4784C6.00075 22.4145 6.37259 23.3122 7.03446 23.9741C7.69634 24.6359 8.59404 25.0078 9.53007 25.0078C9.84644 26.086 10.504 27.0325 11.404 27.7052C12.304 28.3779 13.3979 28.7406 14.5215 28.7388C15.6386 28.7379 16.725 28.3733 17.6164 27.7002C18.5079 27.027 19.156 26.0819 19.4626 25.0078H34.5378C34.8471 26.0792 35.4962 27.0212 36.3875 27.6915C37.2787 28.3619 38.3637 28.7244 39.4789 28.7244C40.5941 28.7244 41.6791 28.3619 42.5703 27.6915C43.4615 27.0212 44.1107 26.0792 44.4199 25.0078H44.9746C45.7769 25.0078 46.5463 24.6891 47.1136 24.1217C47.681 23.5544 47.9997 22.785 47.9997 21.9826V14.8736C48.0099 14.1647 47.7667 13.4754 47.3137 12.93C46.8607 12.3846 46.2279 12.0189 45.5292 11.8989ZM39.1764 8.21828C39.4421 8.21811 39.7031 8.28792 39.9332 8.42068C40.1633 8.55345 40.3544 8.74448 40.4873 8.97456L42.0503 11.8484H33.6807V8.21828H39.1764ZM14.5215 25.7136C14.0886 25.7236 13.6626 25.6037 13.2985 25.3693C12.9343 25.135 12.6487 24.797 12.4784 24.3988C12.3081 24.0007 12.2609 23.5607 12.3429 23.1355C12.425 22.7103 12.6325 22.3194 12.9387 22.0132C13.2449 21.707 13.6358 21.4995 14.061 21.4174C14.4862 21.3354 14.9262 21.3826 15.3243 21.5529C15.7225 21.7232 16.0605 22.0088 16.2948 22.373C16.5292 22.7371 16.6491 23.1631 16.6391 23.596C16.6391 24.1577 16.416 24.6963 16.0189 25.0934C15.6218 25.4905 15.0832 25.7136 14.5215 25.7136ZM39.4789 25.7136C39.046 25.7236 38.62 25.6037 38.2558 25.3693C37.8917 25.135 37.606 24.797 37.4357 24.3988C37.2654 24.0007 37.2183 23.5607 37.3003 23.1355C37.3823 22.7103 37.5898 22.3194 37.896 22.0132C38.2022 21.707 38.5931 21.4995 39.0183 21.4174C39.4435 21.3354 39.8835 21.3826 40.2817 21.5529C40.6798 21.7232 41.0178 22.0088 41.2522 22.373C41.4865 22.7371 41.6064 23.1631 41.5965 23.596C41.5965 24.1577 41.3734 24.6963 40.9763 25.0934C40.5791 25.4905 40.0405 25.7136 39.4789 25.7136ZM44.9746 21.9826H44.3695C44.0337 20.95 43.3797 20.0502 42.5012 19.4121C41.6227 18.774 40.5647 18.4303 39.4789 18.4303C38.3931 18.4303 37.3351 18.774 36.4566 19.4121C35.5781 20.0502 34.9241 20.95 34.5883 21.9826H33.6807V14.8736H44.9746V21.9826Z" fill="white"/>
</svg>
