<svg width="54" height="42" viewBox="0 0 54 42" fill="none" xmlns="http://www.w3.org/2000/svg">
<path d="M50.2 25.06H3.5L9.91 12.17H43.79L50.2 25.06ZM6.73 23.06H46.97L42.55 14.17H11.15L6.73 23.06Z" fill="white"/>
<path d="M42.92 41.63H10.78L3.39001 28.78H50.31L42.92 41.63ZM11.92 39.63H41.76L46.85 30.78H6.85001L11.92 39.63Z" fill="white"/>
<path d="M21.08 9.34H18.74C18.89 9.21 20.2 7.94 18.56 5.62C18.114 5.10529 17.7855 4.49964 17.5973 3.84513C17.409 3.19063 17.3656 2.50299 17.47 1.83C17.4653 1.79683 17.4653 1.76317 17.47 1.73C17.5821 1.34986 17.7751 0.998449 18.0358 0.699849C18.2964 0.40125 18.6185 0.162515 18.98 0L19.43 1.08L19.77 1.83C19.5929 1.93327 19.4635 2.10211 19.41 2.3C19.34 2.59 19.34 3.24 20.2 4.46C20.7584 5.12665 21.1332 5.92742 21.2875 6.78322C21.4419 7.63903 21.3703 8.52029 21.08 9.34Z" fill="white"/>
<path d="M28.5499 9.34H26.2099C26.3499 9.21 27.6699 7.94 26.0299 5.62C25.584 5.10529 25.2555 4.49964 25.0672 3.84513C24.879 3.19063 24.8356 2.50299 24.9399 1.83C24.9353 1.79683 24.9353 1.76317 24.9399 1.73C25.0521 1.34986 25.2451 0.998449 25.5057 0.699849C25.7664 0.40125 26.0884 0.162515 26.4499 0L26.8299 0.92L27.2399 1.83C27.0687 1.9375 26.9439 2.10514 26.8899 2.3C26.8199 2.59 26.8199 3.24 27.6799 4.46C28.2366 5.12761 28.6097 5.92882 28.7622 6.7846C28.9148 7.64037 28.8416 8.52114 28.5499 9.34Z" fill="white"/>
<path d="M36.02 9.34H33.68C33.82 9.21 35.14 7.94 33.5 5.62C33.0541 5.10529 32.7256 4.49964 32.5373 3.84513C32.3491 3.19063 32.3056 2.50299 32.41 1.83C32.4054 1.79683 32.4054 1.76317 32.41 1.73C32.5223 1.35138 32.7142 1.00113 32.9729 0.702756C33.2316 0.40438 33.5511 0.164772 33.91 0L34.3 0.92L34.71 1.83C34.5388 1.9375 34.4139 2.10514 34.36 2.3C34.28 2.59 34.29 3.24 35.15 4.46C35.7067 5.12761 36.0798 5.92882 36.2323 6.7846C36.3849 7.64037 36.3117 8.52114 36.02 9.34Z" fill="white"/>
<path d="M53.7 30.78H0V23.06H53.7V30.78ZM2 28.78H51.7V25.06H2V28.78Z" fill="white"/>
<path d="M37.19 34.93H17.51V28.78H37.19V34.93ZM19.5 32.93H35.19V30.78H19.51L19.5 32.93Z" fill="white"/>
</svg>
